# xmcd
#
# Track frame offsets: 
#        150
#        16780
#        32698
#        52818
#        72428
#        87983
#        100053
#        113418
#        136993
#        157898
#        175855
#        192260
#        211660
#
# Disc length: 3030 seconds
#
# Revision: 0
# Processed by: cddbd v1.5.2PL0 Copyright (c) Steve Scherf et al.
# Submitted via: ExactAudioCopy v0.99pb4
#
DISCID=980bd40d
DTITLE=Blue Mountain - Tales Of A Traveler
DYEAR=1999
DGENRE=Country
TTITLE0=When You're Not Mine
TTITLE1=Poppa
TTITLE2=Comic Book Kid
TTITLE3=Lakeside
TTITLE4=I Don't Wonna Say Good Night
TTITLE5=Sleepin' In My Shoes
TTITLE6=The One That Got Away
TTITLE7=My Wicked,Wicked Ways
TTITLE8=Room 829
TTITLE9=Hermit Of The Hidden Beach
TTITLE10=Death Is a Fisher Man
TTITLE11=Just Passing Through
TTITLE12=At The End Of A Dream
EXTD=
EXTT0=
EXTT1=
EXTT2=
EXTT3=
EXTT4=
EXTT5=
EXTT6=
EXTT7=
EXTT8=
EXTT9=
EXTT10=
EXTT11=
EXTT12=
PLAYORDER=
